<?xml version="1.0" standalone="no"?>
<!DOCTYPE svg PUBLIC "-//W3C//DTD SVG 20010904//EN"
 "http://www.w3.org/TR/2001/REC-SVG-20010904/DTD/svg10.dtd">
<svg version="1.0" xmlns="http://www.w3.org/2000/svg"
 width="128.000000pt" height="128.000000pt" viewBox="0 0 128.000000 128.000000"
 preserveAspectRatio="xMidYMid meet">

<g transform="translate(0.000000,128.000000) scale(0.100000,-0.100000)"
fill="#202124" stroke="none">
<path d="M132 1147 c-22 -23 -22 -24 -22 -508 l0 -486 23 -21 c23 -22 24 -22
508 -22 l486 0 21 23 c22 23 22 24 22 508 l0 486 -23 21 c-23 22 -24 22 -508
22 l-486 0 -21 -23z m986 -94 l3 -63 -481 0 -480 0 0 58 c0 32 3 62 7 65 3 4
218 6 477 5 l471 -3 3 -62z m0 -505 l-3 -383 -475 0 -475 0 -3 383 -2 382 480
0 480 0 -2 -382z"/>
<path d="M283 823 c-9 -3 -13 -37 -13 -119 l0 -115 143 3 142 3 3 104 c2 67
-1 108 -9 117 -9 11 -40 14 -133 13 -66 0 -127 -3 -133 -6z m227 -118 l0 -65
-95 0 -95 0 0 65 0 65 95 0 95 0 0 -65z"/>
<path d="M653 823 c-18 -7 -16 -40 3 -47 20 -8 318 -8 338 0 9 3 16 14 16 24
0 10 -7 21 -16 24 -19 7 -323 7 -341 -1z"/>
<path d="M644 626 c-12 -32 7 -36 187 -36 l180 0 -3 23 c-3 22 -5 22 -181 25
-149 2 -178 0 -183 -12z"/>
<path d="M277 473 c-4 -3 -7 -15 -7 -25 0 -17 18 -18 371 -18 l370 0 -3 23 -3
22 -361 3 c-198 1 -363 -1 -367 -5z"/>
<path d="M277 313 c-4 -3 -7 -15 -7 -25 0 -17 13 -18 194 -18 197 0 211 3 198
38 -3 9 -51 12 -191 12 -103 0 -191 -3 -194 -7z"/>
</g>
</svg>
